<?xml version="1.0" standalone="no"?>
<!DOCTYPE svg PUBLIC "-//W3C//DTD SVG 20010904//EN"
 "http://www.w3.org/TR/2001/REC-SVG-20010904/DTD/svg10.dtd">
<svg version="1.0" xmlns="http://www.w3.org/2000/svg"
 width="256.000000pt" height="256.000000pt" viewBox="0 0 256.000000 256.000000"
 preserveAspectRatio="xMidYMid meet">

<g transform="translate(0.000000,256.000000) scale(0.100000,-0.100000)"
fill="#000000" stroke="none">
<path d="M1127 1938 c-19 -24 -44 -62 -56 -85 -12 -24 -27 -42 -33 -40 -18 3
-47 -116 -52 -211 -3 -45 -7 -86 -10 -91 -3 -4 -19 -8 -37 -9 -17 0 -37 -8
-44 -18 -15 -22 -80 -296 -100 -424 -21 -139 -22 -202 -5 -211 49 -25 86 -37
95 -31 5 3 4 -1 -3 -10 -11 -13 -7 -18 28 -32 65 -26 107 -20 261 38 79 29
171 62 204 72 33 10 63 20 67 23 4 3 8 32 9 64 2 51 5 58 26 63 27 7 26 5 12
41 -6 15 -17 106 -25 201 -12 146 -17 178 -35 203 -11 16 -18 36 -15 44 9 24
26 17 26 -9 0 -24 16 -43 27 -32 8 8 -4 48 -21 71 -11 14 -18 17 -23 8 -5 -6
-9 22 -10 62 -2 100 -20 180 -54 245 -32 60 -61 85 -105 95 l-29 7 32 -26 c49
-41 75 -121 77 -236 0 -52 -3 -112 -7 -132 -6 -29 -5 -38 6 -38 15 0 69 -55
86 -88 7 -13 15 -54 18 -92 l6 -70 -39 -17 c-28 -13 -65 -18 -129 -17 -103 0
-151 18 -160 59 -3 14 -7 36 -10 49 -3 16 -13 26 -27 28 -12 2 -29 18 -41 38
-10 19 -28 43 -40 53 l-22 17 28 -4 c15 -3 44 -15 64 -27 34 -21 36 -22 29 -4
-15 41 -28 184 -22 262 6 87 38 178 78 220 12 13 19 25 16 29 -3 3 -21 -14
-41 -38z m218 -79 c9 -16 12 -29 7 -29 -5 0 -16 16 -25 36 -20 42 -4 36 18 -7z
m-282 -202 c2 -133 -2 -147 -46 -147 -23 0 -23 1 -16 68 7 68 47 217 56 209 2
-3 5 -61 6 -130z m330 -104 c-7 -2 -19 -2 -25 0 -7 3 -2 5 12 5 14 0 19 -2 13
-5z m-424 -240 c-1 -60 -4 -80 -9 -63 -12 37 -12 150 0 150 6 0 10 -35 9 -87z
m85 18 c4 -33 14 -55 32 -72 24 -22 33 -24 132 -24 78 0 121 5 160 19 58 20
69 18 54 -11 -7 -12 -36 -25 -84 -37 -139 -36 -168 -47 -204 -78 -47 -41 -81
-102 -97 -173 l-14 -60 -6 109 c-4 60 -7 171 -7 247 0 114 2 137 14 133 7 -3
16 -27 20 -53z m33 -13 c-3 -7 -5 -2 -5 12 0 14 2 19 5 13 2 -7 2 -19 0 -25z
m350 -272 c-8 -11 -19 -43 -26 -71 -12 -53 -39 -75 -88 -75 -13 0 -23 -4 -23
-9 0 -10 -48 -25 -67 -22 -7 1 -13 -3 -13 -9 0 -6 -4 -9 -10 -5 -8 5 -47 -11
-60 -26 -7 -8 -101 -42 -104 -38 -2 2 5 46 15 97 34 178 87 246 218 281 45 12
101 25 124 29 l42 8 3 -69 c2 -47 -2 -76 -11 -91z m-498 22 c1 -16 -3 -28 -8
-28 -12 0 -20 47 -13 73 5 20 6 20 13 1 4 -10 8 -31 8 -46z m-13 -180 c64 -37
74 -52 46 -67 -15 -8 -31 -4 -72 16 -56 28 -69 45 -50 68 7 8 14 15 15 15 2 0
29 -15 61 -32z"/>
<path d="M1100 1530 c0 -5 13 -16 30 -25 21 -11 39 -36 64 -89 24 -51 43 -77
58 -82 13 -4 29 -15 36 -25 7 -11 22 -19 33 -19 18 0 19 2 5 15 -9 9 -20 34
-26 55 -13 47 -36 55 -27 10 11 -55 -20 -22 -48 50 -14 38 -38 80 -52 94 -25
25 -73 36 -73 16z"/>
<path d="M1320 1374 c0 -9 5 -14 12 -12 18 6 21 28 4 28 -9 0 -16 -7 -16 -16z"/>
<path d="M1327 1344 c-7 -8 3 -34 13 -34 4 0 10 9 13 20 5 19 -12 28 -26 14z"/>
<path d="M1516 954 c-3 -9 -6 -18 -6 -20 0 -9 55 9 70 22 12 12 9 14 -22 14
-23 0 -38 -5 -42 -16z"/>
</g>
</svg>
